<svg width="34" height="25" viewBox="0 0 34 25" fill="none" xmlns="http://www.w3.org/2000/svg">
<path d="M5.004 24.36C3.084 24.36 1.656 24.228 0.72 23.964V21.624C2.16 22.008 3.444 22.2 4.572 22.2C5.508 22.2 6.216 22.116 6.696 21.948C7.176 21.78 7.512 21.48 7.704 21.048C7.896 20.592 7.992 19.908 7.992 18.996V0.635998H11.484V18.852C11.484 20.34 11.268 21.48 10.836 22.272C10.404 23.04 9.732 23.58 8.82 23.892C7.908 24.204 6.636 24.36 5.004 24.36ZM26.6515 24.36C20.0995 24.36 16.8235 22.248 16.8235 18.024V6.936C16.8235 2.472 20.0995 0.239999 26.6515 0.239999C28.8835 0.239999 31.0195 0.467999 33.0595 0.923999V3.516C30.7555 2.94 28.6435 2.652 26.7235 2.652C25.7875 2.652 24.9715 2.712 24.2755 2.832C23.5795 2.928 22.9075 3.108 22.2595 3.372C20.8675 3.972 20.1715 5.148 20.1715 6.9V17.844C20.1715 20.532 22.4035 21.876 26.8675 21.876C28.7875 21.876 30.8995 21.588 33.2035 21.012V23.676C31.1635 24.132 28.9795 24.36 26.6515 24.36Z" fill="white"/>
</svg>
