<svg width="45" height="36" viewBox="0 0 45 36" fill="none" xmlns="http://www.w3.org/2000/svg">
<g filter="url(#filter0_d_4_9)">
<path d="M9.56 27.4C7.42667 27.4 5.84 27.2533 4.8 26.96V24.36C6.4 24.7867 7.82667 25 9.08 25C10.12 25 10.9067 24.9067 11.44 24.72C11.9733 24.5333 12.3467 24.2 12.56 23.72C12.7733 23.2133 12.88 22.4533 12.88 21.44V1.04H16.76V21.28C16.76 22.9333 16.52 24.2 16.04 25.08C15.56 25.9333 14.8133 26.5333 13.8 26.88C12.7867 27.2267 11.3733 27.4 9.56 27.4ZM33.6128 27.4C26.3328 27.4 22.6928 25.0533 22.6928 20.36V8.04C22.6928 3.08 26.3328 0.599999 33.6128 0.599999C36.0928 0.599999 38.4661 0.853332 40.7328 1.36V4.24C38.1728 3.6 35.8261 3.28 33.6928 3.28C32.6528 3.28 31.7461 3.34667 30.9728 3.48C30.1995 3.58667 29.4528 3.78667 28.7328 4.08C27.1861 4.74667 26.4128 6.05333 26.4128 8V20.16C26.4128 23.1467 28.8928 24.64 33.8528 24.64C35.9861 24.64 38.3328 24.32 40.8928 23.68V26.64C38.6261 27.1467 36.1995 27.4 33.6128 27.4Z" fill="#FF5277"/>
<path d="M4.8 26.96H3.8V27.717L4.52854 27.9224L4.8 26.96ZM4.8 24.36L5.05766 23.3938L3.8 23.0584V24.36H4.8ZM11.44 24.72L11.1096 23.7761L11.1096 23.7761L11.44 24.72ZM12.56 23.72L13.4738 24.1261L13.4778 24.1171L13.4816 24.1081L12.56 23.72ZM12.88 1.04V0.0399981H11.88V1.04H12.88ZM16.76 1.04H17.76V0.0399981H16.76V1.04ZM16.04 25.08L16.9117 25.5703L16.9179 25.5589L16.04 25.08ZM13.8 26.88L13.4763 25.9338L13.4763 25.9338L13.8 26.88ZM9.56 26.4C7.44755 26.4 5.97409 26.2521 5.07146 25.9976L4.52854 27.9224C5.70591 28.2545 7.40579 28.4 9.56 28.4V26.4ZM5.8 26.96V24.36H3.8V26.96H5.8ZM4.54234 25.3262C6.2012 25.7686 7.71698 26 9.08 26V24C7.93635 24 6.5988 23.8047 5.05766 23.3938L4.54234 25.3262ZM9.08 26C10.1545 26 11.0762 25.9068 11.7704 25.6639L11.1096 23.7761C10.7371 23.9065 10.0855 24 9.08 24V26ZM11.7704 25.6639C12.542 25.3938 13.1393 24.8787 13.4738 24.1261L11.6462 23.3139C11.554 23.5213 11.4047 23.6729 11.1096 23.7761L11.7704 25.6639ZM13.4816 24.1081C13.7736 23.4147 13.88 22.4932 13.88 21.44H11.88C11.88 22.4134 11.7731 23.012 11.6384 23.3319L13.4816 24.1081ZM13.88 21.44V1.04H11.88V21.44H13.88ZM12.88 2.04H16.76V0.0399981H12.88V2.04ZM15.76 1.04V21.28H17.76V1.04H15.76ZM15.76 21.28C15.76 22.8624 15.5259 23.9342 15.1621 24.6011L16.9179 25.5589C17.5141 24.4658 17.76 23.0043 17.76 21.28H15.76ZM15.1684 24.5897C14.8206 25.2082 14.2808 25.6586 13.4763 25.9338L14.1237 27.8262C15.3458 27.4081 16.2994 26.6585 16.9116 25.5703L15.1684 24.5897ZM13.4763 25.9338C12.6148 26.2286 11.3285 26.4 9.56 26.4V28.4C11.4182 28.4 12.9585 28.2248 14.1237 27.8262L13.4763 25.9338ZM40.7328 1.36H41.7328V0.55885L40.951 0.384083L40.7328 1.36ZM40.7328 4.24L40.4903 5.21014L41.7328 5.52078V4.24H40.7328ZM30.9728 3.48L31.1094 4.47062L31.1261 4.46832L31.1427 4.46546L30.9728 3.48ZM28.7328 4.08L28.3555 3.15391L28.3462 3.1577L28.337 3.16168L28.7328 4.08ZM40.8928 23.68H41.8928V22.3992L40.6503 22.7099L40.8928 23.68ZM40.8928 26.64L41.111 27.6159L41.8928 27.4411V26.64H40.8928ZM33.6128 26.4C30.0482 26.4 27.5471 25.8197 25.9647 24.7995C24.4576 23.828 23.6928 22.4008 23.6928 20.36H21.6928C21.6928 23.0126 22.748 25.1054 24.881 26.4805C26.9386 27.807 29.8974 28.4 33.6128 28.4V26.4ZM23.6928 20.36V8.04H21.6928V20.36H23.6928ZM23.6928 8.04C23.6928 5.84211 24.4771 4.31434 25.9859 3.28642C27.5634 2.21164 30.0552 1.6 33.6128 1.6V-0.400001C29.8905 -0.400001 26.9223 0.228358 24.8598 1.63358C22.7285 3.08566 21.6928 5.27789 21.6928 8.04H23.6928ZM33.6128 1.6C36.0244 1.6 38.3243 1.8463 40.5147 2.33591L40.951 0.384083C38.608 -0.139633 36.1613 -0.400001 33.6128 -0.400001V1.6ZM39.7328 1.36V4.24H41.7328V1.36H39.7328ZM40.9754 3.26986C38.3539 2.6145 35.9245 2.28 33.6928 2.28V4.28C35.7278 4.28 37.9917 4.5855 40.4903 5.21014L40.9754 3.26986ZM33.6928 2.28C32.613 2.28 31.647 2.349 30.8029 2.49454L31.1427 4.46546C31.8453 4.34433 32.6926 4.28 33.6928 4.28V2.28ZM30.8362 2.48938C29.9806 2.60739 29.1531 2.82898 28.3555 3.15391L29.1101 5.00609C29.7526 4.74435 30.4184 4.56594 31.1094 4.47062L30.8362 2.48938ZM28.337 3.16168C27.3916 3.56915 26.6384 4.19547 26.1322 5.05068C25.632 5.89597 25.4128 6.8971 25.4128 8H27.4128C27.4128 7.15623 27.5803 6.53069 27.8534 6.06932C28.1206 5.61786 28.5273 5.25751 29.1286 4.99832L28.337 3.16168ZM25.4128 8V20.16H27.4128V8H25.4128ZM25.4128 20.16C25.4128 21.9904 26.205 23.4422 27.757 24.3767C29.2277 25.2623 31.3051 25.64 33.8528 25.64V23.64C31.4405 23.64 29.7979 23.271 28.7887 22.6633C27.8606 22.1045 27.4128 21.3162 27.4128 20.16H25.4128ZM33.8528 25.64C36.0845 25.64 38.5139 25.3055 41.1354 24.6501L40.6503 22.7099C38.1517 23.3345 35.8878 23.64 33.8528 23.64V25.64ZM39.8928 23.68V26.64H41.8928V23.68H39.8928ZM40.6747 25.6641C38.4872 26.1531 36.1343 26.4 33.6128 26.4V28.4C36.2647 28.4 38.7651 28.1403 41.111 27.6159L40.6747 25.6641Z" fill="#FF5277"/>
</g>
<defs>
<filter id="filter0_d_4_9" x="0.799988" y="0.600006" width="44.0928" height="34.8" filterUnits="userSpaceOnUse" color-interpolation-filters="sRGB">
<feFlood flood-opacity="0" result="BackgroundImageFix"/>
<feColorMatrix in="SourceAlpha" type="matrix" values="0 0 0 0 0 0 0 0 0 0 0 0 0 0 0 0 0 0 127 0" result="hardAlpha"/>
<feOffset dy="4"/>
<feGaussianBlur stdDeviation="2"/>
<feComposite in2="hardAlpha" operator="out"/>
<feColorMatrix type="matrix" values="0 0 0 0 0 0 0 0 0 0 0 0 0 0 0 0 0 0 0.25 0"/>
<feBlend mode="normal" in2="BackgroundImageFix" result="effect1_dropShadow_4_9"/>
<feBlend mode="normal" in="SourceGraphic" in2="effect1_dropShadow_4_9" result="shape"/>
</filter>
</defs>
</svg>
